<?xml version="1.0" encoding="UTF-8" standalone="no"?>
<svg xmlns="http://www.w3.org/2000/svg" xmlns:xlink="http://www.w3.org/1999/xlink" width="300px" height="120px" viewBox="0 0 300 120">
  <g fill="#ffffff">
    <path d="M0 0 L20 0 L70 100 L50 100 Z" />
    <path d="M70 0 L90 0 L50 100 L30 100 Z" />
    <path d="M95 35 L115 35 L115 100 L95 100 Z" />
    <path d="M120 35 L140 35 L140 100 L120 100 Z" />
    <path d="M145 35 L195 35 L195 50 L165 50 L165 60 L185 60 L185 75 L165 75 L165 85 L195 85 L195 100 L145 100 Z" />
    <path d="M200 35 L220 35 L220 75 L240 75 L240 35 L260 35 L260 100 L200 100 Z" />
    <path d="M265 35 L285 35 L285 100 L265 100 Z" />
    <circle cx="275" cy="20" r="15" />
  </g>
  <rect x="0" y="105" width="220" height="10" fill="url(#grad1)" />
  <defs>
    <linearGradient id="grad1" x1="0%" y1="0%" x2="100%" y2="0%">
      <stop offset="0%" style="stop-color:#FFC400;stop-opacity:1" />
      <stop offset="70%" style="stop-color:#FFC400;stop-opacity:1" />
      <stop offset="70%" style="stop-color:#E50914;stop-opacity:1" />
      <stop offset="100%" style="stop-color:#E50914;stop-opacity:1" />
    </linearGradient>
  </defs>
</svg>